<?xml version="1.0" encoding="UTF-8" standalone="no"?>
<!-- Created with Inkscape (http://www.inkscape.org/) -->

<svg
   xmlns:dc="http://purl.org/dc/elements/1.1/"
   xmlns:cc="http://creativecommons.org/ns#"
   xmlns:rdf="http://www.w3.org/1999/02/22-rdf-syntax-ns#"
   xmlns:svg="http://www.w3.org/2000/svg"
   xmlns="http://www.w3.org/2000/svg"
   xmlns:xlink="http://www.w3.org/1999/xlink"
   xmlns:sodipodi="http://sodipodi.sourceforge.net/DTD/sodipodi-0.dtd"
   xmlns:inkscape="http://www.inkscape.org/namespaces/inkscape"
   width="744.09448819"
   height="1052.3622047"
   id="svg2"
   version="1.1"
   inkscape:version="0.48.3.1 r9886"
   sodipodi:docname="yourTime.svg"
   inkscape:export-filename="/home/bros/VMShared/Projects/yourTime/code/art/yourTime16.png"
   inkscape:export-xdpi="4.0527706"
   inkscape:export-ydpi="4.0527706">
  <defs
     id="defs4">
    <linearGradient
       id="linearGradient3834">
      <stop
         style="stop-color:#ffb380;stop-opacity:1;"
         offset="0"
         id="stop3836" />
      <stop
         style="stop-color:#ffb380;stop-opacity:0.51533741;"
         offset="1"
         id="stop3838" />
    </linearGradient>
    <radialGradient
       inkscape:collect="always"
       xlink:href="#linearGradient3834"
       id="radialGradient3840"
       cx="213.09375"
       cy="216"
       fx="213.09375"
       fy="216"
       r="159.09375"
       gradientTransform="matrix(1,0,0,0.97996464,0,4.327637)"
       gradientUnits="userSpaceOnUse" />
  </defs>
  <sodipodi:namedview
     id="base"
     pagecolor="#ffffff"
     bordercolor="#666666"
     borderopacity="1.0"
     inkscape:pageopacity="0.0"
     inkscape:pageshadow="2"
     inkscape:zoom="0.98735304"
     inkscape:cx="297.68534"
     inkscape:cy="859.77031"
     inkscape:document-units="px"
     inkscape:current-layer="layer1"
     showgrid="true"
     showguides="false"
     inkscape:window-width="1598"
     inkscape:window-height="878"
     inkscape:window-x="0"
     inkscape:window-y="20"
     inkscape:window-maximized="0"
     inkscape:snap-global="false">
    <inkscape:grid
       type="xygrid"
       id="grid3055" />
  </sodipodi:namedview>
  <metadata
     id="metadata7">
    <rdf:RDF>
      <cc:Work
         rdf:about="">
        <dc:format>image/svg+xml</dc:format>
        <dc:type
           rdf:resource="http://purl.org/dc/dcmitype/StillImage" />
        <dc:title></dc:title>
      </cc:Work>
    </rdf:RDF>
  </metadata>
  <g
     inkscape:label="Layer 1"
     inkscape:groupmode="layer"
     id="layer1">
    <rect
       style="fill:#ff6600;stroke:#d45500"
       id="rect2985"
       width="354.33072"
       height="354.33072"
       x="35.933071"
       y="42.019669"
       ry="101.42857"
       rx="101.42857" />
    <path
       style="fill:url(#radialGradient3840);stroke:#d45500;stroke-width:1;fill-opacity:1"
       d="M 141.65625 60.59375 C 93.37911 60.59375 54.5 99.44161 54.5 147.71875 L 54.5 207.75 C 60.439589 208.18655 65.09375 213.13267 65.09375 219.1875 C 65.09375 225.24233 60.439589 230.1572 54.5 230.59375 L 54.5 290.625 C 54.5 327.2645 76.88436 358.4843 108.78125 371.40625 L 108.78125 366.3125 C 108.78125 318.03536 147.66036 279.15625 195.9375 279.15625 L 230.25 279.15625 C 278.52714 279.15625 317.40625 318.03536 317.40625 366.3125 L 317.40625 371.40625 C 349.30314 358.4843 371.6875 327.2645 371.6875 290.625 L 371.6875 230.59375 C 365.75189 230.15321 361.09375 225.2395 361.09375 219.1875 C 361.09375 213.1355 365.75189 208.19054 371.6875 207.75 L 371.6875 147.71875 C 371.6875 99.44161 332.83964 60.59375 284.5625 60.59375 L 224.53125 60.59375 C 224.0947 66.533339 219.14858 71.1875 213.09375 71.1875 C 207.03892 71.1875 202.12405 66.533339 201.6875 60.59375 L 141.65625 60.59375 z "
       id="rect3011" />
    <rect
       style="fill:#ff6600;fill-opacity:1;stroke:#d45500;stroke-width:0.99999994"
       id="rect3032"
       width="88.61644"
       height="88.61644"
       x="168.79022"
       y="174.87682"
       ry="87.142845"
       rx="87.142845" />
    <rect
       style="fill:#ff6600;fill-opacity:1;stroke:#d45500;stroke-width:1"
       id="rect3040"
       width="22.142857"
       height="72.14286"
       x="202.02701"
       y="78.790756"
       rx="0"
       ry="77.14286" />
    <rect
       ry="77.14286"
       rx="0"
       y="-212.53362"
       x="279.19034"
       height="47.500004"
       width="22.142857"
       id="rect3053"
       style="fill:#ff6600;fill-opacity:1;stroke:#d45500;stroke-width:1"
       inkscape:transform-center-y="-40.106229"
       transform="matrix(0.4346921,0.90057914,-0.90057914,0.4346921,0,0)"
       inkscape:transform-center-x="-83.090644" />
  </g>
</svg>
